# AST/ASF file generated using VICON BodyLanguage
# -----------------------------------------------
:version 1.10
:name VICON
:units
  mass 1.0
  length 0.45
  angle deg
:documentation
   .ast/.asf automatically generated from VICON data using
   VICON BodyBuilder and BodyLanguage model FoxedUp or BRILLIANT.MOD
:root
   order TX TY TZ RX RY RZ
   axis XYZ
   position 0 0 0  
   orientation 0 0 0 
:bonedata
  begin
     id 1 
     name lhipjoint
     direction 0.710188 -0.616876 0.339259 
     length 2.5669 
     axis 0 0 0  XYZ
  end
  begin
     id 2 
     name lfemur
     direction 0.34202 -0.939693 0  
     length 7.12796  
     axis 0 0 20  XYZ
    dof rx ry rz
    limits (-160.0 20.0)
           (-70.0 70.0)
           (-60.0 70.0)
  end
  begin
     id 3 
     name ltibia
     direction 0.34202 -0.939693 0   
     length 7.58108   
     axis 0 0 20   XYZ
    dof rx
    limits (-10.0 170.0)
  end
  begin
     id 4 
     name lfoot
     direction 0.0669471 -0.183936 0.980656   
     length 2.17365   
     axis -90 7.62852e-016 20   XYZ
    dof rx rz
    limits (-45.0 90.0)
           (-70.0 20.0)
  end
  begin
     id 5 
     name ltoes
     direction 1.53508e-011 -4.21705e-011 1   
     length 1.09427   
     axis -90 7.62852e-016 20   XYZ
    dof rx
    limits (-90.0 20.0)
  end
  begin
     id 6 
     name rhipjoint
     direction -0.700191 -0.625589 0.34405   
     length 2.53115  
     axis 0 0 0  XYZ 
  end
  begin
     id 7 
     name rfemur
     direction -0.34202 -0.939693 0   
     length 7.33006   
     axis 0 0 -20   XYZ
    dof rx ry rz
    limits (-160.0 20.0)
           (-70.0 70.0)
           (-70.0 60.0)
  end
  begin
     id 8 
     name rtibia
     direction -0.34202 -0.939693 0   
     length 7.64926   
     axis 0 0 -20   XYZ
    dof rx
    limits (-10.0 170.0)
 end
 begin
     id 9 
     name rfoot
     direction -0.0688927 -0.189281 0.979503   
     length 2.20493  
     axis -90 -7.62852e-016 -20   XYZ
    dof rx rz
    limits (-45.0 90.0)
           (-20.0 70.0)
  end
  begin
     id 10 
     name rtoes
     direction -1.53567e-011 -4.21933e-011 1   
     length 1.10919   
     axis -90 -7.62852e-016 -20   XYZ
    dof rx
    limits (-90.0 20.0)
  end
  begin
     id 11 
     name lowerback
     direction -0.0167868 0.989873 -0.140959   
     length 2.14596   
     axis 0 0 0   XYZ
    dof rx ry rz
    limits (-20.0 45.0)
           (-30.0 30.0)
           (-30.0 30.0)
  end
  begin
     id 12 
     name upperback
     direction 0.0129109 0.998033 0.0613525   
     length 2.10457   
     axis 0 0 0   XYZ
    dof rx ry rz
    limits (-20.0 45.0)
           (-30.0 30.0)
           (-30.0 30.0)
  end
  begin
     id 13 
     name thorax
     direction 0.0177047 0.991119 0.131797   
     length 2.17652   
     axis 0 0 0   XYZ
    dof rx ry rz
    limits (-20.0 45.0)
           (-30.0 30.0)
           (-30.0 30.0)
  end
  begin
     id 14 
     name lowerneck
     direction -0.0336893 0.997548 0.0613464   
     length 1.8912   
     axis 0 0 0   XYZ
    dof rx ry rz
    limits (-20.0 45.0)
           (-30.0 30.0)
           (-30.0 30.0)
  end
  begin
     id 15 
     name upperneck
     direction 0.0435909 0.997179 -0.0611028   
     length 1.8829   
     axis 0 0 0   XYZ
    dof rx ry rz
    limits (-20.0 45.0)
           (-30.0 30.0)
           (-30.0 30.0)
  end
  begin
     id 16
     name head
     direction 0.0175076 0.999444 -0.0283782  
     length 1.93197  
     axis 0 0 0   XYZ
    dof rx ry rz
    limits (-20.0 45.0)
           (-30.0 30.0)
           (-30.0 30.0)
  end
  begin
     id 17 
     name lclavicle
     direction 0.919164 0.389875 0.0559876  
     length 3.60004  
     axis 0 0 0   XYZ
    dof ry rz
    limits (-20.0 10.0)
           (0.0 20.0)
  end
  begin
     id 18 
     name lhumerus
     direction 1 -4.48958e-011 6.89191e-027   
     length 5.43301   
     axis 180 -30 -90   XYZ
    dof rx ry rz
    limits (-60.0 90.0)
           (-90.0 90.0)
           (-90.0 90.0)
  end
  begin
     id 19
     name lradius
     direction 1 -4.4897e-011 3.24727e-027   
     length 3.15936   
     axis 180 -30 -90   XYZ
    dof rx
    limits (-10.0 170.0)
  end
  begin
     id 20
     name lwrist
     direction 1 -4.4897e-011 9.00228e-027   
     length 1.57968   
     axis -6.29373e-015 90 90   XYZ
    dof ry
    limits (-180.0 0.0)
 end
  begin
     id 21 
     name lhand
     direction 1 -4.48968e-011 1.80042e-026   
     length 0.712827   
     axis -1.14882e-014 90 90   XYZ
    dof rx rz
    limits (-90.0 90.0)
           (-45.0 45.0)
  end
  begin
     id 22 
     name lfingers
     direction 1 -4.49019e-011 3.60267e-026   
     length 0.574699   
     axis -2.29769e-014 90 90   XYZ
    dof rx
    limits (0.0 90.0)
  end
  begin
     id 23
     name lthumb
     direction 0.707107 -6.3498e-011 0.707107   
     length 0.825157   
     axis -90 45 5.37419e-014   XYZ
    dof rx rz
    limits (-45.0 45.0)
           (-45.0 45.0)
  end
  begin
     id 24 
     name rclavicle
     direction -0.890334 0.455305 -0.00132111   
     length 3.51494  
     axis 0 0 0   XYZ 
    dof ry rz
    limits (-10.0 20.0)
           (-20.0 0.0)
  end
  begin
     id 25 
     name rhumerus
     direction -1 -4.48967e-011 5.07175e-028  
     length 5.34194   
     axis 180 30 90   XYZ
    dof rx ry rz
    limits (-90.0 60.0)
           (-90.0 90.0)
           (-90.0 90.0)
  end
  begin
     id 26 
     name rradius
     direction -1 -4.48955e-011 3.30467e-027   
     length 3.19351   
     axis 180 30 90   XYZ
    dof rx
    limits (-10.0 170.0)
  end
  begin
     id 27 
     name rwrist
     direction -1 -4.48968e-011 9.00208e-027   
     length 1.59676   
     axis -6.29373e-015 -90 -90   XYZ
    dof ry
    limits (-180.0 0.0)
  end
  begin
     id 28
     name rhand
     direction -1 -4.49e-011 1.80099e-026   
     length 0.743862   
     axis -1.14882e-014 -90 -90   XYZ
    dof rx rz
    limits (-90.0 90.0)
           (-45.0 45.0)
  end
  begin
     id 29
     name rfingers
     direction -1 -4.49009e-011 3.6023e-026   
     length 0.599721   
     axis -2.29769e-014 -90 -90   XYZ
    dof rx
    limits (0.0 90.0)
  end
  begin
     id 30
     name rthumb
     direction -0.707107 -6.35025e-011 0.707107   
     length 0.861083   
     axis -90 -45 -5.37419e-014   XYZ
    dof rx rz
    limits (-45.0 45.0)
           (-45.0 45.0)
  end
:hierarchy
  begin
    root lhipjoint rhipjoint lowerback
    lhipjoint lfemur
    lfemur ltibia
    ltibia lfoot
    lfoot ltoes
    rhipjoint rfemur
    rfemur rtibia
    rtibia rfoot
    rfoot rtoes
    lowerback upperback
    upperback thorax
    thorax lowerneck lclavicle rclavicle
    lowerneck upperneck
    upperneck head
    lclavicle lhumerus
    lhumerus lradius
    lradius lwrist
    lwrist lhand lthumb
    lhand lfingers
    rclavicle rhumerus
    rhumerus rradius
    rradius rwrist
    rwrist rhand rthumb
    rhand rfingers
  end

#!OML:ASF H:\Martial Arts Walks\Project 1\Capture day 1\Session 1\male.ASF
:FULLY-SPECIFIED
:DEGREES
231
root -3.98755 13.3599 -21.7567 -122.436 80.4067 -133.573
lowerback 21.6839 -1.36032 -4.37038
upperback 0.128331 -2.04245 5.62877
thorax -11.6999 -0.418059 9.56098
lowerneck 9.44458 -17.4723 -16.4756
upperneck -4.97864 -24.6212 24.6714
head 2.28864 -12.9296 9.24907
rclavicle -2.18797e-014 7.48549e-016
rhumerus -34.024 7.05628 -60.9823
rradius 110.023
rwrist -5.34595
rhand -29.1518 -40.1363
rfingers 7.12502
rthumb -2.49827 -70.1014
lclavicle -2.18797e-014 7.48549e-016
lhumerus -33.0938 -30.4708 93.2034
lradius 106.857
lwrist 29.2954
lhand -9.38743 8.37468
lfingers 7.12502
lthumb 16.5735 37.687
rfemur -52.2547 -19.4861 4.462
rtibia 74.5819
rfoot -26.206 5.91059
rtoes -27.9056
lfemur -61.97 24.9855 -5.91301
ltibia 90.5825
lfoot -32.43 9.82577
ltoes -17.8906
232
root -4.02006 13.4409 -21.8109 -115.58 81.2041 -127.074
lowerback 21.6779 -1.17683 -4.43293
upperback 0.0898592 -1.82349 5.59697
thorax -11.7829 -0.30896 9.49782
lowerneck 9.33641 -17.366 -16.4582
upperneck -5.11629 -24.444 24.7152
head 2.23489 -12.8416 9.28146
rclavicle 2.77087e-014 -2.91654e-014
rhumerus -33.9393 7.26201 -61.1505
rradius 109.871
rwrist -5.36223
rhand -29.1976 -39.8885
rfingers 7.12502
rthumb -2.54259 -69.8531
lclavicle 2.77087e-014 -2.91654e-014
lhumerus -32.7583 -30.6379 93.3408
lradius 106.563
lwrist 29.6722
lhand -10.0409 8.48822
lfingers 7.12502
lthumb 15.9443 37.852
rfemur -53.0545 -19.7977 4.97536
rtibia 73.4426
rfoot -24.9909 8.59845
rtoes -24.6568
lfemur -61.5009 25.2643 -6.10444
ltibia 89.8795
lfoot -32.0616 10.4718
ltoes -17.8657
233
root -4.05165 13.5283 -21.8726 -107.89 82.2226 -119.832
lowerback 21.6145 -1.01577 -4.85248
upperback 0.015743 -1.73891 5.49189
thorax -11.8405 -0.247181 9.60053
lowerneck 9.14478 -17.2231 -16.4202
upperneck -5.17635 -24.2152 24.6446
head 2.18697 -12.7177 9.27342
rclavicle -4.89383e-014 2.17918e-014
rhumerus -33.6887 7.6551 -61.3455
rradius 109.668
rwrist -5.33526
rhand -29.2619 -39.6893
rfingers 7.12502
rthumb -2.60462 -69.6531
lclavicle -4.89383e-014 2.17918e-014
lhumerus -32.5013 -30.572 93.4595
lradius 106.303
lwrist 30.0972
lhand -8.88307 9.08111
lfingers 7.12502
lthumb 17.059 38.3521
rfemur -53.9964 -20.3833 5.2162
rtibia 72.274
rfoot -23.5316 11.4987
rtoes -20.7742
lfemur -61.0033 25.4099 -6.73767
ltibia 89.1077
lfoot -31.67 11.3675
ltoes -17.8253
234
root -4.07855 13.6115 -21.9281 -97.168 82.6538 -109.373
lowerback 21.5996 -0.824433 -4.88322
upperback 0.0389804 -1.49578 5.48457
thorax -11.8537 -0.132429 9.53435
lowerneck 9.08834 -17.111 -16.348
upperneck -5.44819 -24.0093 24.7217
head 2.07874 -12.6243 9.32484
rclavicle 2.35933e-014 -4.14963e-015
rhumerus -33.4215 7.8969 -61.38
rradius 109.471
rwrist -5.39255
rhand -29.2628 -39.7598
rfingers 7.12502
rthumb -2.6055 -69.7236
lclavicle 2.35933e-014 -4.14963e-015
lhumerus -32.1878 -30.6922 93.5714
lradius 106.03
lwrist 30.4498
lhand -9.65526 9.2559
lfingers 7.12502
lthumb 16.3156 38.5895
rfemur -54.7485 -20.9492 6.00239
rtibia 71.0564
rfoot -21.8466 14.3696
rtoes -16.1598
lfemur -60.3798 25.8051 -6.78353
ltibia 88.3901
lfoot -31.3244 12.0513
ltoes -17.7606
235
root -4.10329 13.6925 -21.9821 -85.1805 82.9653 -97.6443
lowerback 21.5817 -0.622457 -5.12179
upperback 0.0393393 -1.29511 5.46341
thorax -11.8792 -0.0249455 9.59044
lowerneck 9.01193 -16.994 -16.3563
upperneck -5.60449 -23.8211 24.7697
head 2.01628 -12.5331 9.36709
rclavicle 3.69367e-014 -6.09275e-014
rhumerus -33.2938 8.16185 -61.5992
rradius 109.355
rwrist -5.22268
rhand -29.1944 -39.6192
rfingers 7.12502
rthumb -2.53947 -69.5839
lclavicle 3.69367e-014 -6.09275e-014
lhumerus -31.9725 -30.7186 93.7392
lradius 105.767
lwrist 30.6849
lhand -10.5484 9.27119
lfingers 7.12502
lthumb 15.4555 38.6733
rfemur -55.5261 -21.5886 6.75945
rtibia 69.8609
rfoot -20.3939 16.4446
rtoes -12.8252
lfemur -59.7158 26.213 -6.98897
ltibia 87.6619
lfoot -30.9464 12.7965
ltoes -17.6869
236
root -4.12469 13.7721 -22.0371 -72.2488 82.9462 -84.9866
lowerback 21.465 -0.415108 -5.33505
upperback 0.0564874 -1.07899 5.43468
thorax -11.8347 0.0830668 9.6103
lowerneck 8.92672 -16.8708 -16.2762
upperneck -5.81872 -23.6028 24.7295
head 1.90892 -12.4267 9.37894
rclavicle 1.56543e-014 2.48481e-014
rhumerus -32.9502 8.45206 -61.5284
rradius 109.163
rwrist -5.35376
rhand -29.0097 -39.2392
rfingers 7.12502
rthumb -2.36108 -69.2059
lclavicle 1.56543e-014 2.48481e-014
lhumerus -31.7701 -30.8122 93.8998
lradius 105.574
lwrist 31.0559
lhand -11.7171 9.34127
lfingers 7.12502
lthumb 14.3296 38.8268
rfemur -56.3895 -22.396 7.66753
rtibia 68.7155
rfoot -19.2094 17.6722
rtoes -11.7974
lfemur -59.0568 26.6745 -7.20449
ltibia 86.9559
lfoot -30.5342 13.5997
ltoes -17.8166
